<?xml version="1.0" encoding="iso-8859-1"?>
<!-- Generator: Adobe Illustrator 19.0.0, SVG Export Plug-In . SVG Version: 6.00 Build 0)  -->
<svg version="1.1" id="Layer_1" xmlns="http://www.w3.org/2000/svg" xmlns:xlink="http://www.w3.org/1999/xlink" x="0px" y="0px"
	 viewBox="0 0 309.539 309.539" style="enable-background:new 0 0 309.539 309.539;" xml:space="preserve">
<g>
	<path style="fill:#F4B459;" d="M179.732,251.55c0-39.596,32.096-71.682,71.682-71.682c6.698,0,13.173,0.995,19.329,2.706V19.59
		h19.329V0.261h-19.329V0c0,0-156.827,0.193-212.573,0.251c-10.931,0-19.378,8.215-19.378,19.378v289.899h170.58
		C191.447,296.5,179.732,275.422,179.732,251.55z"/>
	<path style="fill:#D07C40;" d="M290.074,0.271c-10.67,0-19.329,8.659-19.329,19.329v19.329h19.329
		c10.67,0,19.329-8.659,19.329-19.329C309.403,8.92,300.744,0.271,290.074,0.271z"/>
	<path style="fill:#3DB39E;" d="M251.415,193.563c32.028,0,57.988,25.959,57.988,57.988c0,32.009-25.959,57.988-57.988,57.988
		c-32.009,0-57.988-25.978-57.988-57.988C193.428,219.522,219.407,193.563,251.415,193.563z"/>
	<path style="fill:#FFFFFF;" d="M270.745,241.885h-9.665v-9.665c0-5.345-4.32-9.665-9.665-9.665s-9.665,4.32-9.665,9.665v9.665
		h-9.665c-5.345,0-9.665,4.32-9.665,9.665c0,5.345,4.32,9.665,9.665,9.665h9.665v9.665c0,5.345,4.32,9.665,9.665,9.665
		c5.345,0,9.665-4.32,9.665-9.665v-9.665h9.665c5.345,0,9.665-4.32,9.665-9.665S276.09,241.885,270.745,241.885z"/>
	<path style="fill:#D07C40;" d="M182.439,270.879H19.465c-10.67,0-19.329,8.659-19.329,19.329s8.659,19.329,19.329,19.329h189.929
		C196.482,300.163,186.855,286.633,182.439,270.879z"/>
	<path style="fill:#FFFFFF;" d="M190.624,116.207c-2.764,0-6.939,2.619-6.939,7.316v53.194c0,4.687,4.175,7.316,6.939,7.316
		c2.774,0,6.949-2.619,6.949-7.316v-53.194C197.574,118.836,193.398,116.207,190.624,116.207z M145.521,123.948
		c-1.575-4.465-4.987-7.712-9.868-7.712c-4.707,0-8.302,3.431-9.868,7.712l-18.556,50.517c-0.184,0.464-0.638,1.575-0.638,3.064
		c0,3.711,3.131,6.504,6.823,6.504c3.789,0,5.731-2.049,6.649-4.929l2.774-8.64h25.64l2.774,8.727
		c0.928,2.783,2.861,4.832,6.727,4.832c3.421,0,6.369-2.522,6.369-6.137c0-0.648-0.193-1.952-0.735-3.431
		C163.613,174.456,145.521,123.948,145.521,123.948z M126.781,157.649l8.766-26.926h0.184l8.582,26.926H126.781z"/>
</g>
<g>
</g>
<g>
</g>
<g>
</g>
<g>
</g>
<g>
</g>
<g>
</g>
<g>
</g>
<g>
</g>
<g>
</g>
<g>
</g>
<g>
</g>
<g>
</g>
<g>
</g>
<g>
</g>
<g>
</g>
</svg>
