<?xml version="1.0" encoding="iso-8859-1"?>
<!-- Generator: Adobe Illustrator 19.0.0, SVG Export Plug-In . SVG Version: 6.00 Build 0)  -->
<svg version="1.1" id="Layer_1" xmlns="http://www.w3.org/2000/svg" xmlns:xlink="http://www.w3.org/1999/xlink" x="0px" y="0px"
	 viewBox="0 0 309.268 309.268" style="enable-background:new 0 0 309.268 309.268;" xml:space="preserve">
<g>
	<path style="fill:#F4B459;" d="M179.598,251.279c0-39.586,32.096-71.682,71.682-71.682c6.698,0,13.173,0.995,19.329,2.716V86.711
		L183.561,0H19.33C8.66,0,0.001,8.65,0.001,19.329v270.609c0,10.679,8.659,19.329,19.329,19.329h189.929
		C191.312,296.239,179.598,275.161,179.598,251.279z"/>
	<path style="fill:#D07C40;" d="M270.328,86.981h-67.372c-10.67,0-19.329-8.659-19.329-19.329V0.193L270.328,86.981z"/>
	<path style="fill:#E2574C;" d="M251.28,193.292c32.009,0,57.988,25.959,57.988,57.988s-25.978,57.988-57.988,57.988
		s-57.988-25.959-57.988-57.988C193.293,219.27,219.271,193.292,251.28,193.292z"/>
	<path style="fill:#FFFFFF;" d="M231.951,241.615h38.658c5.345,0,9.665,4.33,9.665,9.665c0,5.345-4.32,9.665-9.665,9.665h-38.658
		c-5.345,0-9.665-4.32-9.665-9.665C222.286,245.945,226.607,241.615,231.951,241.615z"/>
	<path style="fill:#FFFFFF;" d="M180.7,135.275c-2.774,0-6.949,2.619-6.949,7.306v53.204c0,4.678,4.175,7.306,6.949,7.306
		c2.764,0,6.939-2.619,6.939-7.306v-53.204C187.639,137.894,183.464,135.275,180.7,135.275z M135.586,143.007
		c-1.566-4.455-4.977-7.703-9.868-7.703c-4.707,0-8.302,3.431-9.868,7.712l-18.556,50.507c-0.184,0.464-0.648,1.585-0.648,3.073
		c0,3.702,3.131,6.495,6.833,6.495c3.779,0,5.721-2.039,6.649-4.929l2.764-8.63h25.64l2.774,8.717
		c0.928,2.793,2.861,4.832,6.736,4.832c3.412,0,6.359-2.513,6.359-6.137c0-0.638-0.193-1.943-0.735-3.431
		C153.668,193.514,135.586,143.007,135.586,143.007z M116.856,176.717l8.766-26.935h0.193l8.572,26.935H116.856z"/>
</g>
<g>
</g>
<g>
</g>
<g>
</g>
<g>
</g>
<g>
</g>
<g>
</g>
<g>
</g>
<g>
</g>
<g>
</g>
<g>
</g>
<g>
</g>
<g>
</g>
<g>
</g>
<g>
</g>
<g>
</g>
</svg>
