<?xml version="1.0" encoding="iso-8859-1"?>
<!-- Generator: Adobe Illustrator 19.0.0, SVG Export Plug-In . SVG Version: 6.00 Build 0)  -->
<svg version="1.1" id="Layer_1" xmlns="http://www.w3.org/2000/svg" xmlns:xlink="http://www.w3.org/1999/xlink" x="0px" y="0px"
	 viewBox="0 0 309.267 309.267" style="enable-background:new 0 0 309.267 309.267;" xml:space="preserve">
<g>
	<path style="fill:#F4B459;" d="M38.658,0h164.23l87.049,86.711v203.227c0,10.679-8.659,19.329-19.329,19.329H38.658
		c-10.67,0-19.329-8.65-19.329-19.329V19.329C19.329,8.65,27.989,0,38.658,0z"/>
	<path style="fill:#D07C40;" d="M289.658,86.981h-67.372c-10.67,0-19.329-8.659-19.329-19.329V0.193L289.658,86.981z"/>
	<path style="fill:#FFFFFF;" d="M190.499,135.275c-2.774,0-6.949,2.619-6.949,7.306v53.204c0,4.678,4.175,7.306,6.949,7.306
		c2.764,0,6.939-2.619,6.939-7.306v-53.204C197.438,137.894,193.263,135.275,190.499,135.275z M145.385,143.007
		c-1.566-4.455-4.987-7.703-9.877-7.703c-4.707,0-8.302,3.431-9.868,7.712l-18.556,50.507c-0.184,0.474-0.638,1.585-0.638,3.073
		c0,3.702,3.131,6.495,6.833,6.495c3.779,0,5.721-2.039,6.649-4.929l2.764-8.63h25.64l2.774,8.717
		c0.928,2.793,2.861,4.832,6.736,4.832c3.412,0,6.359-2.513,6.359-6.137c0-0.638-0.193-1.943-0.735-3.431
		C163.467,193.514,145.384,143.007,145.385,143.007z M126.645,176.717l8.766-26.935h0.193l8.572,26.935H126.645z"/>
</g>
<g>
</g>
<g>
</g>
<g>
</g>
<g>
</g>
<g>
</g>
<g>
</g>
<g>
</g>
<g>
</g>
<g>
</g>
<g>
</g>
<g>
</g>
<g>
</g>
<g>
</g>
<g>
</g>
<g>
</g>
</svg>
