<?xml version="1.0" encoding="iso-8859-1"?>
<!-- Generator: Adobe Illustrator 19.0.0, SVG Export Plug-In . SVG Version: 6.00 Build 0)  -->
<svg version="1.1" id="Layer_1" xmlns="http://www.w3.org/2000/svg" xmlns:xlink="http://www.w3.org/1999/xlink" x="0px" y="0px"
	 viewBox="0 0 309.538 309.538" style="enable-background:new 0 0 309.538 309.538;" xml:space="preserve">
<g>
	<path style="fill:#E2574C;" d="M251.415,193.572c32.009,0,57.988,25.959,57.988,57.978c0,32.009-25.978,57.988-57.988,57.988
		s-57.988-25.978-57.988-57.988C193.427,219.531,219.406,193.572,251.415,193.572z"/>
	<path style="fill:#FFFFFF;" d="M232.086,241.885h38.658c5.345,0,9.665,4.33,9.665,9.665c0,5.345-4.32,9.674-9.665,9.674h-38.658
		c-5.345,0-9.665-4.33-9.665-9.674C222.421,246.215,226.741,241.885,232.086,241.885z"/>
	<path style="fill:#F4B459;" d="M179.732,251.55c0-39.596,32.096-71.682,71.682-71.682c6.698,0,13.173,0.995,19.329,2.706V19.59
		h19.329V0.261h-19.329V0c0,0-156.827,0.193-212.573,0.251c-10.931,0-19.378,8.215-19.378,19.378v289.899h170.58
		C191.446,296.5,179.732,275.422,179.732,251.55z"/>
	<path style="fill:#D07C40;" d="M290.073,0.271c-10.67,0-19.329,8.659-19.329,19.329v19.329h19.329
		c10.67,0,19.329-8.659,19.329-19.329C309.402,8.92,300.743,0.271,290.073,0.271z"/>
	<path style="fill:#D07C40;" d="M182.439,270.879H19.464c-10.67,0-19.329,8.659-19.329,19.329s8.659,19.329,19.329,19.329h189.929
		C196.481,300.163,186.855,286.633,182.439,270.879z"/>
	<path style="fill:#FFFFFF;" d="M190.624,116.207c-2.764,0-6.939,2.619-6.939,7.316v53.194c0,4.687,4.175,7.316,6.939,7.316
		c2.774,0,6.949-2.619,6.949-7.316v-53.194C197.573,118.836,193.398,116.207,190.624,116.207z M145.52,123.948
		c-1.575-4.465-4.987-7.712-9.868-7.712c-4.707,0-8.302,3.431-9.868,7.712l-18.556,50.517c-0.184,0.464-0.638,1.575-0.638,3.064
		c0,3.711,3.131,6.504,6.823,6.504c3.789,0,5.731-2.049,6.649-4.929l2.774-8.64h25.64l2.774,8.727
		c0.928,2.783,2.861,4.832,6.727,4.832c3.421,0,6.369-2.522,6.369-6.137c0-0.648-0.193-1.952-0.735-3.431
		C163.612,174.456,145.52,123.948,145.52,123.948z M126.78,157.649l8.766-26.926h0.184l8.582,26.926H126.78z"/>
</g>
<g>
</g>
<g>
</g>
<g>
</g>
<g>
</g>
<g>
</g>
<g>
</g>
<g>
</g>
<g>
</g>
<g>
</g>
<g>
</g>
<g>
</g>
<g>
</g>
<g>
</g>
<g>
</g>
<g>
</g>
</svg>
