<?xml version="1.0" encoding="iso-8859-1"?>
<!-- Generator: Adobe Illustrator 19.0.0, SVG Export Plug-In . SVG Version: 6.00 Build 0)  -->
<svg version="1.1" id="Layer_1" xmlns="http://www.w3.org/2000/svg" xmlns:xlink="http://www.w3.org/1999/xlink" x="0px" y="0px"
	 viewBox="0 0 309.268 309.268" style="enable-background:new 0 0 309.268 309.268;" xml:space="preserve">
<g>
	<path style="fill:#E2574C;" d="M251.28,193.292c32.009,0,57.988,25.959,57.988,57.988s-25.978,57.988-57.988,57.988
		s-57.988-25.959-57.988-57.988C193.293,219.27,219.271,193.292,251.28,193.292z"/>
	<path style="fill:#FFFFFF;" d="M231.951,241.615h38.658c5.345,0,9.665,4.33,9.665,9.665c0,5.345-4.32,9.665-9.665,9.665h-38.658
		c-5.345,0-9.665-4.32-9.665-9.665C222.286,245.945,226.607,241.615,231.951,241.615z"/>
	<path style="fill:#3DB39E;" d="M179.598,251.279c0-39.586,32.096-71.682,71.682-71.682c6.698,0,13.173,0.995,19.329,2.716V86.711
		L183.561,0H19.33C8.66,0,0.001,8.65,0.001,19.329v270.609c0,10.679,8.659,19.329,19.329,19.329h189.929
		C191.312,296.239,179.598,275.161,179.598,251.279z"/>
	<path style="fill:#2F8A78;" d="M270.328,86.981h-67.372c-10.67,0-19.329-8.659-19.329-19.329V0.193L270.328,86.981z"/>
	<path style="fill:#8BD1C5;" d="M183.628,228.026v-5.741h2.252c1.508-3.373,3.267-6.601,5.258-9.665h-7.509V193.3h19.329v5.422
		c3.006-2.754,6.224-5.258,9.665-7.471V125.64H57.989v125.64h121.619C179.646,243.123,181.087,235.333,183.628,228.026z
		 M183.628,135.304h19.329v19.329h-19.329V135.304z M183.628,164.308h19.329v19.32h-19.329V164.308z M86.982,241.625H67.653v-19.339
		h19.329V241.625z M86.982,212.621H67.653v-19.32h19.329V212.621z M86.982,183.627H67.653v-19.32h19.329V183.627z M86.982,154.634
		H67.653v-19.329h19.329V154.634z M115.976,241.625H96.647v-19.339h19.329C115.976,222.286,115.976,241.625,115.976,241.625z
		 M115.976,212.621H96.647v-19.32h19.329C115.976,193.301,115.976,212.621,115.976,212.621z M115.976,183.627H96.647v-19.32h19.329
		C115.976,164.307,115.976,183.627,115.976,183.627z M115.976,154.634H96.647v-19.329h19.329
		C115.976,135.305,115.976,154.634,115.976,154.634z M144.969,241.625h-19.329v-19.339h19.329V241.625z M144.969,212.621h-19.329
		v-19.32h19.329V212.621z M144.969,183.627h-19.329v-19.32h19.329V183.627z M144.969,154.634h-19.329v-19.329h19.329V154.634z
		 M173.964,241.625h-19.329v-19.339h19.329V241.625z M173.964,212.621h-19.329v-19.32h19.329V212.621z M173.964,183.627h-19.329
		v-19.32h19.329V183.627z M154.635,154.634v-19.329h19.329v19.329H154.635z"/>
</g>
<g>
</g>
<g>
</g>
<g>
</g>
<g>
</g>
<g>
</g>
<g>
</g>
<g>
</g>
<g>
</g>
<g>
</g>
<g>
</g>
<g>
</g>
<g>
</g>
<g>
</g>
<g>
</g>
<g>
</g>
</svg>
