<?xml version="1.0" encoding="iso-8859-1"?>
<!-- Generator: Adobe Illustrator 19.0.0, SVG Export Plug-In . SVG Version: 6.00 Build 0)  -->
<svg version="1.1" id="Layer_1" xmlns="http://www.w3.org/2000/svg" xmlns:xlink="http://www.w3.org/1999/xlink" x="0px" y="0px"
	 viewBox="0 0 309.538 309.538" style="enable-background:new 0 0 309.538 309.538;" xml:space="preserve">
<g>
	<path style="fill:#E2574C;" d="M251.415,193.572c32.009,0,57.988,25.959,57.988,57.978c0,32.009-25.978,57.988-57.988,57.988
		s-57.988-25.978-57.988-57.988C193.427,219.531,219.406,193.572,251.415,193.572z"/>
	<path style="fill:#FFFFFF;" d="M232.086,241.885h38.658c5.345,0,9.665,4.33,9.665,9.665c0,5.345-4.32,9.674-9.665,9.674h-38.658
		c-5.345,0-9.665-4.33-9.665-9.674C222.421,246.215,226.741,241.885,232.086,241.885z"/>
	<path style="fill:#3DB39E;" d="M179.732,251.55c0-39.596,32.096-71.682,71.682-71.682c6.698,0,13.173,0.995,19.329,2.706V19.59
		h19.329V0.261h-19.329V0c0,0-156.827,0.193-212.573,0.251c-10.931,0-19.378,8.215-19.378,19.378v289.899h170.58
		C191.446,296.5,179.732,275.422,179.732,251.55z"/>
	<path style="fill:#2F8A78;" d="M290.073,0.271c-10.67,0-19.329,8.659-19.329,19.329v19.329h19.329
		c10.67,0,19.329-8.659,19.329-19.329C309.402,8.92,300.743,0.271,290.073,0.271z"/>
	<path style="fill:#2F8A78;" d="M182.439,270.879H19.464c-10.67,0-19.329,8.659-19.329,19.329s8.659,19.329,19.329,19.329h189.929
		C196.481,300.163,186.855,286.633,182.439,270.879z"/>
	<path style="fill:#8BD1C5;" d="M77.452,213.085h113.549c3.392-5.316,7.461-10.128,12.09-14.371v-14.632h19.329v1.943
		c3.112-1.382,6.34-2.522,9.665-3.45v-95.13H77.452V213.085z M203.092,97.11h19.329v19.329h-19.329V97.11z M203.092,126.104h19.329
		v19.329h-19.329V126.104z M203.092,155.097h19.329v19.329h-19.329V155.097z M174.098,97.11h19.329v19.329h-19.329V97.11z
		 M174.098,126.104h19.329v19.329h-19.329V126.104z M174.098,155.097h19.329v19.329h-19.329V155.097z M174.098,184.091h19.329
		v19.329h-19.329V184.091z M145.104,97.11h19.329v19.329h-19.329V97.11z M145.104,126.104h19.329v19.329h-19.329V126.104z
		 M145.104,155.097h19.329v19.329h-19.329V155.097z M145.104,184.091h19.329v19.329h-19.329V184.091z M116.11,97.11h19.329v19.329
		H116.11V97.11z M116.11,126.104h19.329v19.329H116.11V126.104z M116.11,155.097h19.329v19.329H116.11V155.097z M116.11,184.091
		h19.329v19.329H116.11V184.091z M87.117,97.11h19.329v19.329H87.117V97.11z M87.117,126.104h19.329v19.329H87.117V126.104z
		 M87.117,155.097h19.329v19.329H87.117V155.097z M87.117,184.091h19.329v19.329H87.117V184.091z"/>
</g>
<g>
</g>
<g>
</g>
<g>
</g>
<g>
</g>
<g>
</g>
<g>
</g>
<g>
</g>
<g>
</g>
<g>
</g>
<g>
</g>
<g>
</g>
<g>
</g>
<g>
</g>
<g>
</g>
<g>
</g>
</svg>
