<?xml version="1.0" encoding="iso-8859-1"?>
<!-- Generator: Adobe Illustrator 19.0.0, SVG Export Plug-In . SVG Version: 6.00 Build 0)  -->
<svg version="1.1" id="Layer_1" xmlns="http://www.w3.org/2000/svg" xmlns:xlink="http://www.w3.org/1999/xlink" x="0px" y="0px"
	 viewBox="0 0 309.529 309.529" style="enable-background:new 0 0 309.529 309.529;" xml:space="preserve">
<g>
	<path style="fill:#3DB39E;" d="M179.728,251.279c0-39.586,32.096-71.682,71.682-71.682c6.698,0,13.173,0.995,19.329,2.716V86.711
		L183.69,0H19.46C8.79,0,0.13,8.65,0.13,19.329v270.609c0,10.679,8.659,19.329,19.329,19.329h189.929
		C191.441,296.239,179.728,275.161,179.728,251.279z"/>
	<path style="fill:#2F8A78;" d="M270.46,86.981h-67.372c-10.67,0-19.329-8.659-19.329-19.329V0.193L270.46,86.981z"/>
	<path style="fill:#3DB39E;" d="M251.41,193.553c32.028,0,57.988,25.969,57.988,57.988c0,32.009-25.959,57.988-57.988,57.988
		c-32.009,0-57.988-25.978-57.988-57.988C193.422,219.522,219.401,193.553,251.41,193.553z"/>
	<path style="fill:#FFFFFF;" d="M270.74,241.876h-9.665v-9.665c0-5.345-4.32-9.665-9.665-9.665c-5.345,0-9.665,4.32-9.665,9.665
		v9.665h-9.665c-5.345,0-9.665,4.32-9.665,9.665c0,5.354,4.32,9.665,9.665,9.665h9.665v9.665c0,5.354,4.32,9.665,9.665,9.665
		c5.344,0,9.665-4.31,9.665-9.665v-9.665h9.665c5.345,0,9.665-4.31,9.665-9.665C280.404,246.206,276.085,241.876,270.74,241.876z"/>
	<path style="fill:#8BD1C5;" d="M183.758,228.026v-5.741h2.252c1.508-3.373,3.267-6.601,5.258-9.665h-7.509V193.3h19.329v5.422
		c3.006-2.754,6.224-5.258,9.665-7.471V125.64H58.118v125.64h121.619C179.776,243.123,181.216,235.333,183.758,228.026z
		 M183.758,135.304h19.329v19.329h-19.329V135.304z M183.758,164.308h19.329v19.32h-19.329V164.308z M87.112,241.625H67.783v-19.339
		h19.329V241.625z M87.112,212.621H67.783v-19.32h19.329V212.621z M87.112,183.627H67.783v-19.32h19.329V183.627z M87.112,154.634
		H67.783v-19.329h19.329V154.634z M116.106,241.625h-19.33v-19.339h19.329L116.106,241.625L116.106,241.625z M116.106,212.621
		h-19.33v-19.32h19.329L116.106,212.621L116.106,212.621z M116.106,183.627h-19.33v-19.32h19.329L116.106,183.627L116.106,183.627z
		 M116.106,154.634h-19.33v-19.329h19.329L116.106,154.634L116.106,154.634z M145.099,241.625H125.77v-19.339h19.329V241.625z
		 M145.099,212.621H125.77v-19.32h19.329V212.621z M145.099,183.627H125.77v-19.32h19.329V183.627z M145.099,154.634H125.77v-19.329
		h19.329V154.634z M174.093,241.625h-19.329v-19.339h19.329V241.625z M174.093,212.621h-19.329v-19.32h19.329V212.621z
		 M174.093,183.627h-19.329v-19.32h19.329V183.627z M154.764,154.634v-19.329h19.329v19.329H154.764z"/>
</g>
<g>
</g>
<g>
</g>
<g>
</g>
<g>
</g>
<g>
</g>
<g>
</g>
<g>
</g>
<g>
</g>
<g>
</g>
<g>
</g>
<g>
</g>
<g>
</g>
<g>
</g>
<g>
</g>
<g>
</g>
</svg>
