<?xml version="1.0" encoding="iso-8859-1"?>
<!-- Generator: Adobe Illustrator 19.0.0, SVG Export Plug-In . SVG Version: 6.00 Build 0)  -->
<svg version="1.1" id="Layer_1" xmlns="http://www.w3.org/2000/svg" xmlns:xlink="http://www.w3.org/1999/xlink" x="0px" y="0px"
	 viewBox="0 0 309.268 309.268" style="enable-background:new 0 0 309.268 309.268;" xml:space="preserve">
<g>
	<path style="fill:#F4B459;" d="M57.988,57.989H251.28l57.988,57.988H0L57.988,57.989z"/>
	<path style="fill:#D07C40;" d="M67.652,77.318h173.963l48.323,48.304c0,0-3.962,48.342-10.95,48.342H28.462
		c-5.847,0-9.133-48.342-9.133-48.342L67.652,77.318z"/>
	<path style="fill:#F4B459;" d="M212.621,115.976v19.31c0,10.689-8.659,19.349-19.329,19.349h-77.317
		c-10.67,0-19.329-8.659-19.329-19.349v-19.31H0v115.975c0,10.67,8.659,19.329,19.329,19.329h270.609
		c10.67,0,19.329-8.659,19.329-19.329V115.976H212.621z"/>
</g>
<g>
</g>
<g>
</g>
<g>
</g>
<g>
</g>
<g>
</g>
<g>
</g>
<g>
</g>
<g>
</g>
<g>
</g>
<g>
</g>
<g>
</g>
<g>
</g>
<g>
</g>
<g>
</g>
<g>
</g>
</svg>
