<?xml version="1.0" encoding="iso-8859-1"?>
<!-- Generator: Adobe Illustrator 19.0.0, SVG Export Plug-In . SVG Version: 6.00 Build 0)  -->
<svg version="1.1" id="Layer_1" xmlns="http://www.w3.org/2000/svg" xmlns:xlink="http://www.w3.org/1999/xlink" x="0px" y="0px"
	 viewBox="0 0 309.539 309.539" style="enable-background:new 0 0 309.539 309.539;" xml:space="preserve">
<g>
	<path style="fill:#26A6D1;" d="M179.732,251.55c0-39.596,32.096-71.682,71.682-71.682c6.698,0,13.173,0.995,19.329,2.706V19.59
		h19.329V0.261h-19.329V0c0,0-156.827,0.193-212.573,0.251c-10.931,0-19.378,8.215-19.378,19.378v289.899h170.58
		C191.447,296.5,179.732,275.422,179.732,251.55z"/>
	<path style="fill:#1E7EA0;" d="M290.074,0.271c-10.67,0-19.329,8.659-19.329,19.329v19.329h19.329
		c10.67,0,19.329-8.659,19.329-19.329C309.403,8.92,300.744,0.271,290.074,0.271z"/>
	<path style="fill:#3DB39E;" d="M251.415,193.563c32.028,0,57.988,25.959,57.988,57.988c0,32.009-25.959,57.988-57.988,57.988
		c-32.009,0-57.988-25.978-57.988-57.988C193.428,219.522,219.407,193.563,251.415,193.563z"/>
	<path style="fill:#FFFFFF;" d="M270.745,241.885h-9.665v-9.665c0-5.345-4.32-9.665-9.665-9.665s-9.665,4.32-9.665,9.665v9.665
		h-9.665c-5.345,0-9.665,4.32-9.665,9.665c0,5.345,4.32,9.665,9.665,9.665h9.665v9.665c0,5.345,4.32,9.665,9.665,9.665
		c5.345,0,9.665-4.32,9.665-9.665v-9.665h9.665c5.345,0,9.665-4.32,9.665-9.665S276.09,241.885,270.745,241.885z"/>
	<path style="fill:#1E7EA0;" d="M182.439,270.879H19.465c-10.67,0-19.329,8.659-19.329,19.329s8.659,19.329,19.329,19.329h189.929
		C196.482,300.163,186.855,286.633,182.439,270.879z"/>
	<path style="fill:#FFFFFF;" d="M121.408,115.289h-17.097c-4.823,0-7.529,2.996-7.529,7.529v54.296c0,4.832,3.083,7.529,7.239,7.529
		s7.248-2.696,7.248-7.529v-15.86h10.718c13.231,0,24.142-8.785,24.142-22.886C146.13,124.557,135.615,115.289,121.408,115.289z
		 M121.127,148.506h-9.858v-20.47h9.858c6.079,0,9.945,4.436,9.945,10.235S127.197,148.506,121.127,148.506z M179.279,134.319
		c0-4.059,3.779-6.272,7.925-6.272c5.799,0,8.882,2.899,12.844,2.899c3.953,0,6.466-3.392,6.466-7.152
		c0-7.625-13.511-9.665-18.933-9.665c-12.835,0-23.959,8.408-23.959,21.939c0,22.403,32.27,15.55,32.27,26.964
		c0,4.716-3.479,8.302-9.858,8.302c-6.272,0-11.694-3.779-16.227-3.779c-3.962,0-6.475,3.093-6.475,6.852
		c0,9.075,16.024,10.815,23.466,10.815c13.337,0,24.732-8.592,24.732-22.403C211.54,137.885,179.279,144.263,179.279,134.319z"/>
</g>
<g>
</g>
<g>
</g>
<g>
</g>
<g>
</g>
<g>
</g>
<g>
</g>
<g>
</g>
<g>
</g>
<g>
</g>
<g>
</g>
<g>
</g>
<g>
</g>
<g>
</g>
<g>
</g>
<g>
</g>
</svg>
