<?xml version="1.0" encoding="iso-8859-1"?>
<!-- Generator: Adobe Illustrator 19.0.0, SVG Export Plug-In . SVG Version: 6.00 Build 0)  -->
<svg version="1.1" id="Layer_1" xmlns="http://www.w3.org/2000/svg" xmlns:xlink="http://www.w3.org/1999/xlink" x="0px" y="0px"
	 viewBox="0 0 309.537 309.537" style="enable-background:new 0 0 309.537 309.537;" xml:space="preserve">
<g>
	<path style="fill:#26A6D1;" d="M270.744,0.271V0c0,0-156.827,0.193-212.573,0.251c-10.931,0-19.378,8.215-19.378,19.378v289.899
		h212.621c10.67,0,19.329-8.659,19.329-19.329V19.59h19.329V0.261C290.073,0.261,270.744,0.271,270.744,0.271z"/>
	<path style="fill:#1E7EA0;" d="M232.086,290.208c0-10.67,8.659-19.329,19.329-19.329H19.464c-10.67,0-19.329,8.659-19.329,19.329
		s8.659,19.329,19.329,19.329h231.95C240.745,309.538,232.086,300.878,232.086,290.208z"/>
	<path style="fill:#1E7EA0;" d="M290.073,0.271c-10.67,0-19.329,8.659-19.329,19.329v19.329h19.329
		c10.67,0,19.329-8.659,19.329-19.329C309.402,8.92,300.743,0.271,290.073,0.271z"/>
	<path style="fill:#FFFFFF;" d="M121.165,115.289h-17.097c-4.823,0-7.529,2.996-7.529,7.529v54.296c0,4.832,3.083,7.529,7.239,7.529
		s7.248-2.696,7.248-7.529v-15.86h10.718c13.231,0,24.142-8.785,24.142-22.886C145.897,124.557,135.372,115.289,121.165,115.289z
		 M120.885,148.506h-9.858v-20.47h9.858c6.079,0,9.945,4.436,9.945,10.235C130.83,144.07,126.964,148.506,120.885,148.506z
		 M179.046,134.319c0-4.059,3.779-6.272,7.925-6.272c5.799,0,8.882,2.899,12.844,2.899c3.953,0,6.466-3.392,6.466-7.152
		c0-7.625-13.511-9.665-18.933-9.665c-12.835,0-23.959,8.408-23.959,21.939c0,22.403,32.27,15.55,32.27,26.964
		c0,4.716-3.479,8.302-9.858,8.302c-6.272,0-11.694-3.779-16.227-3.779c-3.962,0-6.475,3.093-6.475,6.852
		c0,9.075,16.024,10.815,23.466,10.815c13.337,0,24.732-8.592,24.732-22.403C211.307,137.885,179.046,144.263,179.046,134.319z"/>
</g>
<g>
</g>
<g>
</g>
<g>
</g>
<g>
</g>
<g>
</g>
<g>
</g>
<g>
</g>
<g>
</g>
<g>
</g>
<g>
</g>
<g>
</g>
<g>
</g>
<g>
</g>
<g>
</g>
<g>
</g>
</svg>
