<?xml version="1.0" encoding="iso-8859-1"?>
<!-- Generator: Adobe Illustrator 19.0.0, SVG Export Plug-In . SVG Version: 6.00 Build 0)  -->
<svg version="1.1" id="Layer_1" xmlns="http://www.w3.org/2000/svg" xmlns:xlink="http://www.w3.org/1999/xlink" x="0px" y="0px"
	 viewBox="0 0 309.268 309.268" style="enable-background:new 0 0 309.268 309.268;" xml:space="preserve">
<g>
	<path style="fill:#26A6D1;" d="M179.598,251.279c0-39.586,32.096-71.682,71.682-71.682c6.698,0,13.173,0.995,19.329,2.716V86.711
		L183.561,0H19.33C8.66,0,0.001,8.65,0.001,19.329v270.609c0,10.679,8.659,19.329,19.329,19.329h189.929
		C191.312,296.239,179.598,275.161,179.598,251.279z"/>
	<path style="fill:#FFFFFF;" d="M101.711,134.348H84.604c-4.832,0-7.529,2.996-7.529,7.529v54.286c0,4.832,3.083,7.529,7.239,7.529
		s7.248-2.706,7.248-7.529v-15.85h10.718c13.231,0,24.152-8.785,24.152-22.895C126.443,143.616,115.909,134.348,101.711,134.348z
		 M101.421,167.574h-9.858v-20.47h9.858c6.089,0,9.945,4.436,9.945,10.235C111.366,163.129,107.51,167.574,101.421,167.574z
		 M159.583,153.377c0-4.059,3.779-6.272,7.925-6.272c5.799,0,8.882,2.899,12.844,2.899c3.953,0,6.466-3.392,6.466-7.152
		c0-7.625-13.511-9.655-18.923-9.655c-12.854,0-23.959,8.399-23.959,21.929c0,22.403,32.27,15.55,32.27,26.955
		c0,4.736-3.479,8.312-9.868,8.312c-6.272,0-11.694-3.769-16.237-3.769c-3.953,0-6.466,3.083-6.466,6.852
		c0,9.065,16.034,10.815,23.475,10.815c13.327,0,24.741-8.601,24.741-22.403C191.863,156.953,159.583,163.312,159.583,153.377z"/>
	<path style="fill:#1E7EA0;" d="M270.328,86.981h-67.372c-10.67,0-19.329-8.659-19.329-19.329V0.193L270.328,86.981z"/>
	<path style="fill:#E2574C;" d="M251.28,193.292c32.009,0,57.988,25.959,57.988,57.988s-25.978,57.988-57.988,57.988
		s-57.988-25.959-57.988-57.988C193.293,219.27,219.271,193.292,251.28,193.292z"/>
	<path style="fill:#FFFFFF;" d="M231.951,241.615h38.658c5.345,0,9.665,4.33,9.665,9.665c0,5.345-4.32,9.665-9.665,9.665h-38.658
		c-5.345,0-9.665-4.32-9.665-9.665C222.286,245.945,226.607,241.615,231.951,241.615z"/>
</g>
<g>
</g>
<g>
</g>
<g>
</g>
<g>
</g>
<g>
</g>
<g>
</g>
<g>
</g>
<g>
</g>
<g>
</g>
<g>
</g>
<g>
</g>
<g>
</g>
<g>
</g>
<g>
</g>
<g>
</g>
</svg>
