<?xml version="1.0" encoding="iso-8859-1"?>
<!-- Generator: Adobe Illustrator 19.0.0, SVG Export Plug-In . SVG Version: 6.00 Build 0)  -->
<svg version="1.1" id="Layer_1" xmlns="http://www.w3.org/2000/svg" xmlns:xlink="http://www.w3.org/1999/xlink" x="0px" y="0px"
	 viewBox="0 0 309.539 309.539" style="enable-background:new 0 0 309.539 309.539;" xml:space="preserve">
<g>
	<path style="fill:#26A6D1;" d="M179.732,251.279c0-39.586,32.096-71.682,71.682-71.682c6.698,0,13.173,0.995,19.329,2.716V86.711
		L183.696,0H19.465C8.796,0,0.136,8.65,0.136,19.329v270.609c0,10.679,8.659,19.329,19.329,19.329h189.929
		C191.447,296.239,179.732,275.161,179.732,251.279z"/>
	<path style="fill:#FFFFFF;" d="M101.847,134.348H84.74c-4.832,0-7.529,2.996-7.529,7.529v54.286c0,4.832,3.083,7.529,7.239,7.529
		s7.248-2.706,7.248-7.529v-15.85h10.718c13.231,0,24.152-8.785,24.152-22.895C126.578,143.616,116.044,134.348,101.847,134.348z
		 M101.557,167.574h-9.858v-20.47h9.858c6.089,0,9.945,4.436,9.945,10.235C111.501,163.129,107.645,167.574,101.557,167.574z
		 M159.717,153.377c0-4.059,3.779-6.272,7.925-6.272c5.799,0,8.882,2.899,12.844,2.899c3.953,0,6.466-3.392,6.466-7.152
		c0-7.625-13.511-9.655-18.923-9.655c-12.854,0-23.959,8.399-23.959,21.929c0,22.403,32.27,15.55,32.27,26.955
		c0,4.736-3.479,8.312-9.868,8.312c-6.263,0-11.694-3.769-16.237-3.769c-3.953,0-6.466,3.073-6.466,6.852
		c0,9.065,16.043,10.815,23.475,10.815c13.327,0,24.751-8.611,24.751-22.403C191.997,156.953,159.717,163.312,159.717,153.377z"/>
	<path style="fill:#1E7EA0;" d="M270.465,86.981h-67.372c-10.67,0-19.329-8.659-19.329-19.329V0.193L270.465,86.981z"/>
	<path style="fill:#3DB39E;" d="M251.415,193.563c32.028,0,57.988,25.959,57.988,57.988c0,32.009-25.959,57.988-57.988,57.988
		c-32.009,0-57.988-25.978-57.988-57.988C193.428,219.522,219.407,193.563,251.415,193.563z"/>
	<path style="fill:#FFFFFF;" d="M270.745,241.885h-9.665v-9.665c0-5.345-4.32-9.665-9.665-9.665s-9.665,4.32-9.665,9.665v9.665
		h-9.665c-5.345,0-9.665,4.32-9.665,9.665c0,5.345,4.32,9.665,9.665,9.665h9.665v9.665c0,5.345,4.32,9.665,9.665,9.665
		c5.345,0,9.665-4.32,9.665-9.665v-9.665h9.665c5.345,0,9.665-4.32,9.665-9.665S276.09,241.885,270.745,241.885z"/>
</g>
<g>
</g>
<g>
</g>
<g>
</g>
<g>
</g>
<g>
</g>
<g>
</g>
<g>
</g>
<g>
</g>
<g>
</g>
<g>
</g>
<g>
</g>
<g>
</g>
<g>
</g>
<g>
</g>
<g>
</g>
</svg>
