<?xml version="1.0" encoding="iso-8859-1"?>
<!-- Generator: Adobe Illustrator 19.0.0, SVG Export Plug-In . SVG Version: 6.00 Build 0)  -->
<svg version="1.1" id="Layer_1" xmlns="http://www.w3.org/2000/svg" xmlns:xlink="http://www.w3.org/1999/xlink" x="0px" y="0px"
	 viewBox="0 0 309.267 309.267" style="enable-background:new 0 0 309.267 309.267;" xml:space="preserve">
<g>
	<path style="fill:#26A6D1;" d="M38.658,0h164.23l87.049,86.711v203.227c0,10.679-8.659,19.329-19.329,19.329H38.658
		c-10.67,0-19.329-8.65-19.329-19.329V19.329C19.329,8.65,27.989,0,38.658,0z"/>
	<path style="fill:#FFFFFF;" d="M121.039,134.348h-17.106c-4.832,0-7.529,2.996-7.529,7.529v54.286c0,4.832,3.083,7.529,7.239,7.529
		s7.248-2.706,7.248-7.529v-15.85h10.718c13.231,0,24.152-8.785,24.152-22.895C145.771,143.616,135.237,134.348,121.039,134.348z
		 M120.749,167.574h-9.858v-20.47h9.858c6.089,0,9.945,4.436,9.945,10.235C130.694,163.129,126.838,167.574,120.749,167.574z
		 M178.911,153.377c0-4.059,3.779-6.272,7.925-6.272c5.799,0,8.882,2.899,12.844,2.899c3.953,0,6.466-3.392,6.466-7.152
		c0-7.625-13.511-9.655-18.923-9.655c-12.854,0-23.959,8.399-23.959,21.929c0,22.403,32.27,15.55,32.27,26.955
		c0,4.736-3.479,8.312-9.868,8.312c-6.263,0-11.694-3.769-16.237-3.769c-3.953,0-6.466,3.073-6.466,6.852
		c0,9.065,16.043,10.815,23.475,10.815c13.327,0,24.751-8.611,24.751-22.403C211.191,156.953,178.911,163.312,178.911,153.377z"/>
	<path style="fill:#1E7EA0;" d="M289.658,86.981h-67.372c-10.67,0-19.329-8.659-19.329-19.329V0.193L289.658,86.981z"/>
</g>
<g>
</g>
<g>
</g>
<g>
</g>
<g>
</g>
<g>
</g>
<g>
</g>
<g>
</g>
<g>
</g>
<g>
</g>
<g>
</g>
<g>
</g>
<g>
</g>
<g>
</g>
<g>
</g>
<g>
</g>
</svg>
