<?xml version="1.0" encoding="iso-8859-1"?>
<!-- Generator: Adobe Illustrator 19.0.0, SVG Export Plug-In . SVG Version: 6.00 Build 0)  -->
<svg version="1.1" id="Layer_1" xmlns="http://www.w3.org/2000/svg" xmlns:xlink="http://www.w3.org/1999/xlink" x="0px" y="0px"
	 viewBox="0 0 309.529 309.529" style="enable-background:new 0 0 309.529 309.529;" xml:space="preserve">
<g>
	<path style="fill:#E4E7E7;" d="M179.728,251.279c0-39.586,32.096-71.682,71.682-71.682c6.698,0,13.173,0.995,19.329,2.716V86.711
		L183.69,0H19.46C8.79,0,0.13,8.65,0.13,19.329v270.609c0,10.679,8.659,19.329,19.329,19.329h189.929
		C191.441,296.239,179.728,275.161,179.728,251.279z"/>
	<path style="fill:#C2C5C7;" d="M270.46,86.981h-67.372c-10.67,0-19.329-8.659-19.329-19.329V0.193L270.46,86.981z"/>
	<path style="fill:#3DB39E;" d="M251.41,193.553c32.028,0,57.988,25.969,57.988,57.988c0,32.009-25.959,57.988-57.988,57.988
		c-32.009,0-57.988-25.978-57.988-57.988C193.422,219.522,219.401,193.553,251.41,193.553z"/>
	<path style="fill:#FFFFFF;" d="M270.74,241.876h-9.665v-9.665c0-5.345-4.32-9.665-9.665-9.665c-5.345,0-9.665,4.32-9.665,9.665
		v9.665h-9.665c-5.345,0-9.665,4.32-9.665,9.665c0,5.354,4.32,9.665,9.665,9.665h9.665v9.665c0,5.354,4.32,9.665,9.665,9.665
		c5.344,0,9.665-4.31,9.665-9.665v-9.665h9.665c5.345,0,9.665-4.31,9.665-9.665C280.404,246.206,276.085,241.876,270.74,241.876z"/>
	<g>
		<rect x="38.789" y="48.323" style="fill:#CCD0D2;" width="106.311" height="19.329"/>
		<rect x="38.789" y="125.64" style="fill:#CCD0D2;" width="193.292" height="19.329"/>
		<rect x="38.789" y="86.981" style="fill:#CCD0D2;" width="106.311" height="19.329"/>
		<path style="fill:#CCD0D2;" d="M232.081,182.574v-18.266H38.789v19.329h189.803L232.081,182.574z M179.728,251.54
			c0-3.383,0.309-6.669,0.764-9.916H38.789v19.32h141.625C180.008,257.861,179.728,254.73,179.728,251.54z M198.825,202.956H38.789
			v19.329H186.01C189.218,215.144,193.577,208.639,198.825,202.956z"/>
	</g>
</g>
<g>
</g>
<g>
</g>
<g>
</g>
<g>
</g>
<g>
</g>
<g>
</g>
<g>
</g>
<g>
</g>
<g>
</g>
<g>
</g>
<g>
</g>
<g>
</g>
<g>
</g>
<g>
</g>
<g>
</g>
</svg>
