<?xml version="1.0" encoding="iso-8859-1"?>
<!-- Generator: Adobe Illustrator 19.0.0, SVG Export Plug-In . SVG Version: 6.00 Build 0)  -->
<svg version="1.1" id="Layer_1" xmlns="http://www.w3.org/2000/svg" xmlns:xlink="http://www.w3.org/1999/xlink" x="0px" y="0px"
	 viewBox="0 0 309.268 309.268" style="enable-background:new 0 0 309.268 309.268;" xml:space="preserve">
<g>
	<path style="fill:#E2574C;" d="M251.28,193.292c32.009,0,57.988,25.959,57.988,57.988s-25.978,57.988-57.988,57.988
		s-57.988-25.959-57.988-57.988C193.293,219.27,219.271,193.292,251.28,193.292z"/>
	<path style="fill:#FFFFFF;" d="M231.951,241.615h38.658c5.345,0,9.665,4.33,9.665,9.665c0,5.345-4.32,9.665-9.665,9.665h-38.658
		c-5.345,0-9.665-4.32-9.665-9.665C222.286,245.945,226.607,241.615,231.951,241.615z"/>
	<path style="fill:#E4E7E7;" d="M179.598,251.279c0-39.586,32.096-71.682,71.682-71.682c6.698,0,13.173,0.995,19.329,2.716V86.711
		L183.561,0H19.33C8.66,0,0.001,8.65,0.001,19.329v270.609c0,10.679,8.659,19.329,19.329,19.329h189.929
		C191.312,296.239,179.598,275.161,179.598,251.279z"/>
	<path style="fill:#C2C5C7;" d="M270.328,86.981h-67.372c-10.67,0-19.329-8.659-19.329-19.329V0.193L270.328,86.981z"/>
	<g>
		<rect x="38.659" y="48.323" style="fill:#CCD0D2;" width="106.311" height="19.329"/>
		<rect x="38.659" y="125.64" style="fill:#CCD0D2;" width="193.292" height="19.329"/>
		<rect x="38.659" y="86.981" style="fill:#CCD0D2;" width="106.311" height="19.329"/>
		<path style="fill:#CCD0D2;" d="M231.951,182.574v-18.266H38.659v19.329h189.803L231.951,182.574z M179.598,251.54
			c0-3.383,0.309-6.669,0.764-9.916H38.659v19.32h141.625C179.878,257.861,179.598,254.73,179.598,251.54z M198.695,202.956H38.659
			v19.329H185.88C189.089,215.144,193.448,208.639,198.695,202.956z"/>
	</g>
</g>
<g>
</g>
<g>
</g>
<g>
</g>
<g>
</g>
<g>
</g>
<g>
</g>
<g>
</g>
<g>
</g>
<g>
</g>
<g>
</g>
<g>
</g>
<g>
</g>
<g>
</g>
<g>
</g>
<g>
</g>
</svg>
