<?xml version="1.0" encoding="iso-8859-1"?>
<!-- Generator: Adobe Illustrator 19.0.0, SVG Export Plug-In . SVG Version: 6.00 Build 0)  -->
<svg version="1.1" id="Layer_1" xmlns="http://www.w3.org/2000/svg" xmlns:xlink="http://www.w3.org/1999/xlink" x="0px" y="0px"
	 viewBox="0 0 309.537 309.537" style="enable-background:new 0 0 309.537 309.537;" xml:space="preserve">
<g>
	<path style="fill:#E4E7E7;" d="M270.744,0.271V0c0,0-156.827,0.193-212.573,0.251c-10.931,0-19.378,8.215-19.378,19.378v289.899
		h212.621c10.67,0,19.329-8.659,19.329-19.329V19.59h19.329V0.261h-19.329L270.744,0.271L270.744,0.271z"/>
	<path style="fill:#C2C5C7;" d="M232.086,290.208c0-10.67,8.659-19.329,19.329-19.329H19.464c-10.67,0-19.329,8.659-19.329,19.329
		s8.659,19.329,19.329,19.329h231.95C240.745,309.538,232.086,300.878,232.086,290.208z"/>
	<path style="fill:#C2C5C7;" d="M290.073,0.271c-10.67,0-19.329,8.659-19.329,19.329v19.329h19.329
		c10.67,0,19.329-8.659,19.329-19.329C309.402,8.92,300.743,0.271,290.073,0.271z"/>
	<path style="fill:#CCD0D2;" d="M77.452,48.594v19.329h154.634V48.594H77.452z M77.452,106.581h154.634V87.252H77.452V106.581z
		 M77.452,145.24h154.634v-19.33H77.452V145.24z M77.452,183.898h154.634v-19.329H77.452V183.898z M77.452,222.556h154.634v-19.329
		H77.452V222.556z"/>
</g>
<g>
</g>
<g>
</g>
<g>
</g>
<g>
</g>
<g>
</g>
<g>
</g>
<g>
</g>
<g>
</g>
<g>
</g>
<g>
</g>
<g>
</g>
<g>
</g>
<g>
</g>
<g>
</g>
<g>
</g>
</svg>
