<?xml version="1.0" encoding="iso-8859-1"?>
<!-- Generator: Adobe Illustrator 19.0.0, SVG Export Plug-In . SVG Version: 6.00 Build 0)  -->
<svg version="1.1" id="Layer_1" xmlns="http://www.w3.org/2000/svg" xmlns:xlink="http://www.w3.org/1999/xlink" x="0px" y="0px"
	 viewBox="0 0 309.538 309.538" style="enable-background:new 0 0 309.538 309.538;" xml:space="preserve">
<g>
	<path style="fill:#E4E7E7;" d="M179.732,251.55c0-39.596,32.096-71.682,71.682-71.682c6.698,0,13.173,0.995,19.329,2.706V19.59
		h19.329V0.261h-19.329V0c0,0-156.827,0.193-212.573,0.251c-10.931,0-19.378,8.215-19.378,19.378v289.899h170.58
		C191.446,296.5,179.732,275.422,179.732,251.55z"/>
	<path style="fill:#C2C5C7;" d="M290.073,0.271c-10.67,0-19.329,8.659-19.329,19.329v19.329h19.329
		c10.67,0,19.329-8.659,19.329-19.329C309.402,8.92,300.743,0.271,290.073,0.271z"/>
	<path style="fill:#C2C5C7;" d="M182.439,270.879H19.464c-10.67,0-19.329,8.659-19.329,19.329s8.659,19.329,19.329,19.329h189.929
		C196.481,300.163,186.855,286.633,182.439,270.879z"/>
	<g>
		<rect x="77.452" y="48.594" style="fill:#CCD0D2;" width="154.634" height="19.329"/>
		<path style="fill:#CCD0D2;" d="M198.578,203.227H77.452v19.329h108.446C189.059,215.414,193.369,208.92,198.578,203.227z"/>
		<rect x="77.452" y="87.252" style="fill:#CCD0D2;" width="154.634" height="19.329"/>
		<path style="fill:#CCD0D2;" d="M232.086,182.574v-18.005H77.452v19.329h150.439L232.086,182.574z"/>
		<rect x="77.452" y="125.91" style="fill:#CCD0D2;" width="154.634" height="19.329"/>
	</g>
	<path style="fill:#E2574C;" d="M251.415,193.572c32.019,0,57.988,25.959,57.988,57.978c0,32.028-25.969,57.988-57.988,57.988
		s-57.988-25.959-57.988-57.988C193.427,219.531,219.396,193.572,251.415,193.572z"/>
	<path style="fill:#FFFFFF;" d="M232.086,241.885h38.658c5.345,0,9.665,4.33,9.665,9.665c0,5.345-4.32,9.674-9.665,9.674h-38.658
		c-5.345,0-9.665-4.33-9.665-9.674C222.421,246.215,226.741,241.885,232.086,241.885z"/>
</g>
<g>
</g>
<g>
</g>
<g>
</g>
<g>
</g>
<g>
</g>
<g>
</g>
<g>
</g>
<g>
</g>
<g>
</g>
<g>
</g>
<g>
</g>
<g>
</g>
<g>
</g>
<g>
</g>
<g>
</g>
</svg>
